<mxfile host="app.diagrams.net" modified="2023-04-04T10:28:07.015Z" agent="Mozilla/5.0 (Windows NT 10.0; Win64; x64; rv:109.0) Gecko/20100101 Firefox/111.0" etag="5iULW_5xjXo2BrVN9NZl" version="21.1.4" type="github">
  <diagram name="Page-1" id="fk9rbdVK4m5I_ALst2UT">
    <mxGraphModel dx="1189" dy="602" grid="0" gridSize="10" guides="1" tooltips="1" connect="1" arrows="1" fold="1" page="0" pageScale="1" pageWidth="827" pageHeight="1169" math="0" shadow="0">
      <root>
        <mxCell id="0" />
        <mxCell id="1" parent="0" />
        <mxCell id="I3FUIYHm-plFTADxBa1i-1" value="" style="rounded=0;whiteSpace=wrap;html=1;" parent="1" vertex="1">
          <mxGeometry x="103" y="188" width="160" height="66" as="geometry" />
        </mxCell>
      </root>
    </mxGraphModel>
  </diagram>
</mxfile>
